<svg width="224" height="224" viewBox="0 0 224 224" fill="none" xmlns="http://www.w3.org/2000/svg">
<path fill-rule="evenodd" clip-rule="evenodd" d="M94.5412 1.15789C53.3892 7.16889 17.5052 37.6469 4.58924 77.5589C0.260242 90.9359 -0.365758 96.3909 0.155242 116.215C0.670242 135.801 1.63824 140.868 7.57424 155.059C15.4842 173.965 20.1382 176.953 37.2882 174.136C46.0372 172.7 45.8482 173.541 45.8742 135.865L45.8962 103.171L48.3082 100.365C50.6262 97.6669 51.1302 97.5459 61.3762 97.2159C68.4302 96.9889 73.0652 97.3009 75.0872 98.1379C80.5382 100.396 80.8962 102.739 80.8962 136.138V166.282L84.6462 165.627C86.9372 165.227 89.4662 163.815 91.1462 162L93.8962 159.027V119.266C93.8962 75.7829 93.7912 76.5879 99.7942 74.1009C101.711 73.3069 106.388 72.9909 112.922 73.2129C122.609 73.5429 123.182 73.6869 125.484 76.3649L127.896 79.1709V115.115C127.896 154.56 127.507 152.373 134.044 149.642C141.19 146.656 140.805 149.38 141.116 99.6769L141.396 54.8839L144.202 52.4719C146.827 50.2139 147.759 50.0609 158.702 50.0909C166.314 50.1119 170.95 50.5479 171.983 51.3409C175.697 54.1929 175.896 56.2349 175.896 91.4929C175.896 110.504 176.238 126.059 176.657 126.059C177.075 126.059 181.463 122.805 186.407 118.827C197.214 110.132 210.592 96.7269 214.913 90.2629C217.745 86.0269 218.018 84.9619 217.662 79.5589C216.913 68.1829 205.052 47.4459 191.421 33.6819C166.228 8.24189 129.791 -3.99111 94.5412 1.15789ZM219.674 109.309C210.467 123.101 192.638 140.492 174.134 153.731C143.653 175.539 101.603 192.42 57.8632 200.407L45.4712 202.67L49.9332 205.733C68.2602 218.31 91.6422 224.702 115.896 223.766C133.53 223.085 145.221 220.082 161.396 212.081C192.727 196.582 214.116 169.046 221.506 134.698C223.006 127.726 224.689 104.059 223.685 104.059C223.407 104.059 221.602 106.421 219.674 109.309Z" fill="black"/>
</svg>
